<svg id="bible" enable-background="new 0 0 300 300" height="512" viewBox="0 0 300 300" width="512" xmlns="http://www.w3.org/2000/svg"><g><path d="m119.171 46.828c.782.781 1.805 1.172 2.829 1.172s2.047-.391 2.828-1.172c1.562-1.562 1.562-4.094 0-5.656l-12-12c-1.562-1.562-4.094-1.562-5.656 0s-1.562 4.094 0 5.656z"/><path d="m154 48c1.023 0 2.047-.391 2.828-1.172l12-12c1.562-1.562 1.562-4.094 0-5.656s-4.094-1.562-5.656 0l-12 12c-1.562 1.562-1.562 4.094 0 5.656.781.781 1.804 1.172 2.828 1.172z"/><path d="m138 48c2.209 0 4-1.791 4-4v-16c0-2.209-1.791-4-4-4s-4 1.791-4 4v16c0 2.209 1.791 4 4 4z"/><path d="m77.504 107.988 12.496 1.562v38.45c0 2.209 1.791 4 4 4s4-1.791 4-4v-37.45l11.504 1.438c.168.021.336.031.502.031 1.986 0 3.711-1.48 3.963-3.504.273-2.191-1.281-4.191-3.473-4.465l-12.496-1.561v-10.489c0-2.209-1.791-4-4-4s-4 1.791-4 4v9.489l-11.504-1.438c-2.18-.283-4.193 1.279-4.465 3.473-.274 2.191 1.281 4.191 3.473 4.464z"/><path d="m136.369 235.727c-1.561-1.568-4.096-1.568-5.656-.012l-4.529 4.512-4.51-4.527c-1.559-1.568-4.094-1.568-5.656-.012-1.566 1.559-1.57 4.092-.012 5.656l4.512 4.529-4.527 4.51c-1.566 1.559-1.57 4.092-.012 5.656.781.785 1.809 1.178 2.834 1.178 1.021 0 2.043-.389 2.822-1.166l4.529-4.512 4.51 4.527c.781.785 1.809 1.178 2.834 1.178 1.021 0 2.043-.389 2.822-1.166 1.566-1.559 1.57-4.092.012-5.656l-4.512-4.529 4.527-4.51c1.566-1.559 1.57-4.092.012-5.656z"/><path d="m265.879 195.494c-.27-1.066-.967-1.975-1.926-2.512l-21.953-12.281v-95.65c0-7.512-4.996-14.061-12.053-16.238v-18.665c0-1.928-1.377-3.582-3.273-3.934-49.205-9.089-79.577 11.974-88.674 19.598-9.102-7.626-39.495-28.7-88.726-19.598-1.897.352-3.274 2.005-3.274 3.934v18.682c-7.029 2.192-12 8.728-12 16.221v109.898c0 9.403 7.648 17.051 17.05 17.051h86.98c4.612 9.147 14.264 21.323 34.239 27.98.387.129.826.197 1.232.205.058 0 5.306.175 11.786 4.172l-3.184 4.824c-1.182 1.789-.742 4.191.996 5.447l28.559 20.615c.688.494 1.508.756 2.342.756.252 0 .504-.023.754-.072 1.082-.207 2.031-.852 2.621-1.781l48-75.529c.591-.928.773-2.056.504-3.123zm-31.879-110.443v91.29c-1.406-.553-2.942-.273-4.053.707v-99.516c2.455 1.641 4.053 4.426 4.053 7.519zm-12.053-31.531v116.939c-1.28-3.341-1.994-6.908-1.994-10.572 0-6.094-.977-12.117-2.904-17.904l-9.463-28.385c-2.771-8.318-11.346-13.281-19.936-11.568-4.895.979-9.139 4.016-11.646 8.334-2.506 4.318-3.037 9.51-1.459 14.248l10.414 31.24-1.111 1.391c-5.67 7.086-7.739 15.882-7.334 24.404-12.978 3.055-24.586 7.584-34.513 13.629v-122.335c5.825-5.123 33.62-26.767 79.946-19.421zm-167.947 0c46.187-7.305 74.15 14.33 80 19.432v122.324c-25.627-15.623-56.096-18.047-72.531-18.047-2.992 0-5.521.08-7.469.176zm-12 141.429v-109.898c0-3.068 1.575-5.833 4-7.479v104.12c0 1.131.479 2.209 1.318 2.969.84.756 1.963 1.119 3.086 1.012.49-.053 47.954-4.551 82.385 18.328h-81.739c-4.99-.001-9.05-4.062-9.05-9.052zm132.289 37.27c-20.648-7.063-28.29-20.646-31.031-28.224 9.648-6.415 21.171-11.253 34.34-14.427 1.051 4.569 2.765 8.86 4.983 12.51.752 1.238 2.07 1.922 3.422 1.922.707 0 1.424-.188 2.074-.582 1.887-1.146 2.488-3.607 1.34-5.496-5.832-9.598-7.578-25.367.678-35.684l2.471-3.09c.846-1.059 1.1-2.477.67-3.764l-11.102-33.303c-.854-2.562-.566-5.369.789-7.703s3.65-3.977 6.297-4.506c4.627-.926 9.275 1.756 10.775 6.254l9.463 28.385c1.654 4.969 2.494 10.143 2.494 15.375 0 10.162 4.141 19.801 11.362 26.852l-33.618 50.937c-7.133-4.463-13.308-5.308-15.407-5.456zm38.611 34.054-22.008-15.887 42.953-65.082 22.51 12.594z"/><path d="m208 246.293c-2.047 0-3.707 1.66-3.707 3.707s1.659 3.707 3.707 3.707 3.707-1.659 3.707-3.707-1.66-3.707-3.707-3.707z"/><path d="m64 234.293c-2.047 0-3.707 1.66-3.707 3.707s1.659 3.707 3.707 3.707c2.047 0 3.707-1.659 3.707-3.707s-1.66-3.707-3.707-3.707z"/></g></svg>