<svg id="_x33_0" enable-background="new 0 0 64 64" height="512" viewBox="0 0 64 64" width="512" xmlns="http://www.w3.org/2000/svg"><g><g><g><path d="m19.49 52.3c.04-.04.08-.09.11-.13l4.4-6.17 2 2-.63-2.19c-.45-1.56-1.14-3.03-2.04-4.34-.91-1.32-2.03-2.49-3.33-3.47 0 0-1.44.72-3.1.94-.75-.6-1.68-.94-2.66-.94-.82 0-1.59.24-2.24.65-.28.16-.53.36-.76.59-.76.77-1.24 1.83-1.24 3v19.76h16v-5.63c-.03-.02-.07-.04-.1-.06z" fill="#e6e9ed"/></g><g><path d="m34.91 36.92h-.17c-1.53.05-2.74 1.29-2.74 2.82v.26c0 1.97-.5 3.9-1.46 5.62l-.31.56-2.16 3.89-2.07-2.07-2-2-4.4 6.17c-.03.04-.07.09-.11.13l6.41 4.01c.03.02.07.04.1.06.7.41 1.49.63 2.3.63 1.66 0 3.19-.91 3.98-2.38l3.16-5.87.66-1.23c1.1-2.03 1.73-4.28 1.87-6.57.02-.32.03-.63.03-.95 0-.04 0-.07 0-.11 0-1.68-1.39-3.02-3.09-2.97z" fill="#f0d0b4"/></g><g><path d="m20 33v5s-1.44.72-3.1.94c-.75-.6-1.68-.94-2.66-.94-.82 0-1.59.24-2.24.65v-.01-5.64l.34-.5c1.08-1.63 1.66-3.54 1.66-5.5l-.24-.06c-1.1-.28-2.04-.91-2.71-1.76-.66-.85-1.05-1.92-1.05-3.06 0-.58.24-1.12.62-1.5s.92-.62 1.5-.62c.56 0 1.1.22 1.5.62l.38.38c.62-2.49 2.48-4.49 4.91-5.3l1.95-.65c.59.59 1.43.95 2.31.95h1.59c.55 0 1.08-.08 1.58-.24 1.66 4.06 1.66 10.24 1.66 10.24l-3 1v2c0 2.21-1.79 4-4 4z" fill="#f0d0b4"/></g><g><path d="m20.86 15.05-1.95.65c-2.43.81-4.29 2.81-4.91 5.3l-.38-.38c-.4-.4-.94-.62-1.5-.62-.58 0-1.12.24-1.5.62s-.62.92-.62 1.5c0 1.14.39 2.21 1.05 3.06.67.85 1.61 1.48 2.71 1.76l.24.06c0 1.96-.58 3.87-1.66 5.5l-.34.5-7.64-6.87c-.75-.68-1.34-1.5-1.74-2.41-.4-.9-.62-1.89-.62-2.9 0-2.39 1.19-4.62 3.18-5.94l1.39-.93.01-.01c-.38-.6-.58-1.29-.58-2.01 0-1.21.57-2.36 1.55-3.09 2.09-1.57 4.41-2.78 6.87-3.6 2.45-.82 5.03-1.24 7.65-1.24h1.39c.36 0 .72.03 1.07.09 1.58.26 2.95 1.07 3.92 2.22s1.55 2.63 1.55 4.23v.22c0 .82-.19 1.62-.55 2.35-.45.89-1.12 1.61-1.93 2.11-.37.23-.77.41-1.18.54-.5.16-1.03.24-1.58.24h-1.59c-.88 0-1.72-.36-2.31-.95z" fill="#b27946"/></g><g><path d="m62 19v6c0 .55-.45 1-1 1h-7v19c0 .55-.45 1-1 1h-6c-.55 0-1-.45-1-1v-19h-7c-.55 0-1-.45-1-1v-6c0-.55.45-1 1-1h7v-7c0-.55.45-1 1-1h6c.55 0 1 .45 1 1v7h7c.55 0 1 .45 1 1z" fill="#aab2bd"/></g></g><g><path d="m61 17h-6v-6c0-1.103-.897-2-2-2h-6c-1.103 0-2 .897-2 2v6h-6c-1.103 0-2 .897-2 2v6c0 1.103.897 2 2 2h6v18c0 1.103.897 2 2 2h6c1.103 0 2-.897 2-2v-18h6c1.103 0 2-.897 2-2v-6c0-1.103-.897-2-2-2zm0 8h-8v20h-6v-20h-8v-6h8v-8h6v8l8 .003z"/><path d="m21 25c1.654 0 3-1.346 3-3h-2c0 .551-.448 1-1 1s-1-.449-1-1h-2c0 1.654 1.346 3 3 3z"/><path d="m41 52.607v-1.607c0-3.447-.649-6.816-1.935-10.029l-.089-.213c.012-.253.024-.506.024-.759v-.108c0-1.081-.427-2.09-1.2-2.843-.781-.759-1.799-1.151-2.922-1.13l-.167.005c-1.829.052-3.307 1.356-3.638 3.084-2.251.035-4.073 1.871-4.073 4.131 0 1.388.699 2.666 1.866 3.444l-1.025 1.845-.95-.95-.555-1.944c-.9-3.147-2.786-5.978-5.336-8.022v-3.511c2.757 0 5-2.243 5-5v-1.279l3-1v-.721c0-.242-.019-5.573-1.394-9.695 1.158-.593 2.127-1.534 2.735-2.753.431-.861.659-1.825.659-2.788v-.223c0-3.702-2.65-6.83-6.302-7.439-.409-.067-.826-.102-1.239-.102h-1.391c-5.418 0-10.788 1.79-15.122 5.041-1.218.913-1.946 2.367-1.946 3.891 0 .578.107 1.14.298 1.667l-.674.45c-2.27 1.513-3.624 4.044-3.624 6.772 0 2.303.982 4.508 2.694 6.049l7.306 6.575v4.71c-1.209.961-2 2.427-2 4.087v20.758h18v-5.166c.424.103.857.166 1.298.166 2.035 0 3.898-1.113 4.864-2.905l2.702-5.018 3.136 1.545v1.378h-2v2h2v4h2v-4h2v-2h-2zm-7.999-12.607v-.26c0-.992.776-1.791 1.768-1.819l.167-.005c.581-.011 1.079.186 1.47.566.383.373.594.873.594 1.409v.108c0 2.453-.614 4.891-1.777 7.049l-.206.382-3.426-1.688c.911-1.773 1.409-3.744 1.41-5.742zm-2.066 1.02c-.129 1.319-.506 2.602-1.108 3.783-.509-.4-.827-1.003-.827-1.665 0-1.11.853-2.014 1.935-2.118zm-7.149 3.351-4.874-4.873c.365-.117.68-.235.93-.337 1.707 1.396 3.064 3.193 3.944 5.21zm-20.786-23.55c0-2.057 1.021-3.967 2.733-5.108l.625-.417c.243.252.509.485.807.683l1.279.853 1.109-1.664-1.279-.853c-.797-.532-1.274-1.423-1.274-2.383 0-.897.429-1.753 1.146-2.292 3.99-2.992 8.934-4.64 13.922-4.64h1.391c.304 0 .61.025.911.075 2.683.447 4.63 2.746 4.63 5.467v.223c0 .654-.154 1.309-.447 1.894-.722 1.444-2.174 2.341-3.789 2.341h-1.594c-1.141 0-2.112-.848-2.167-1.891-.029-.557.165-1.084.547-1.486.381-.402.896-.623 1.45-.623h2v-2h-2c-1.092 0-2.149.454-2.901 1.246-.763.804-1.151 1.857-1.094 2.967.024.459.142.89.313 1.293l-.723.241c-2.292.764-4.11 2.43-5.073 4.586-.433-.216-.914-.333-1.401-.333-1.721 0-3.121 1.4-3.121 3.121 0 2.549 1.605 4.786 3.969 5.624-.109 1.314-.523 2.573-1.186 3.715l-6.751-6.076c-1.291-1.163-2.032-2.826-2.032-4.563zm11.006 5.15c-1.77-.443-3.006-2.026-3.006-3.85 0-.618.503-1.121 1.121-1.121.295 0 .584.12.793.328l1.628 1.628.428-1.713c.543-2.171 2.135-3.89 4.258-4.598l1.423-.474c.702.513 1.569.829 2.519.829h1.594c.319 0 .633-.028.941-.074.994 2.971 1.227 6.793 1.279 8.359l-2.984.994v2.721c0 1.654-1.346 3-3 3h-4v2h2v3.345c-.441.175-1.105.401-1.845.537-.855-.573-1.86-.882-2.913-.882-.43 0-.842.067-1.242.165v-3.862l.168-.252c1.198-1.798 1.832-3.89 1.832-6.051v-.782zm.236 13.029c.867 0 1.681.337 2.293.95l6.158 6.158-3.911 5.477c-.366.511-1.207.527-1.592.033l-5.322-6.844c-.559-.721-.868-1.619-.868-2.531 0-1.788 1.454-3.243 3.242-3.243zm-3.242 22v-14.086l4.612 5.931c.572.734 1.433 1.155 2.363 1.155.569 0 1.109-.179 1.58-.474l5.445 3.403v4.071zm20.4-6.854c-.615 1.144-1.804 1.854-3.102 1.854-.661 0-1.308-.185-1.868-.536l-5.504-3.441 3.202-4.482 2.703 2.703-.705 1.269 1.748.972 2.768-4.982 3.426 1.688zm5.413-5.831.172-.319c.52-.966.94-1.983 1.262-3.029.36 1.442.605 2.91.701 4.4z"/><path d="m59 9h2v2h-2z"/><path d="m59 13h2v2h-2z"/><path d="m57 11h2v2h-2z"/><path d="m61 11h2v2h-2z"/><path d="m52 1h2v2h-2z"/><path d="m52 5h2v2h-2z"/><path d="m50 3h2v2h-2z"/><path d="m54 3h2v2h-2z"/><path d="m39 5h2v2h-2z"/><path d="m39 9h2v2h-2z"/><path d="m37 7h2v2h-2z"/><path d="m41 7h2v2h-2z"/><path d="m59 31h2v2h-2z"/><path d="m59 35h2v2h-2z"/><path d="m57 33h2v2h-2z"/><path d="m61 33h2v2h-2z"/><path d="m53 49h2v2h-2z"/><path d="m53 53h2v2h-2z"/><path d="m51 51h2v2h-2z"/><path d="m55 51h2v2h-2z"/><path d="m39 29h2v2h-2z"/><path d="m39 33h2v2h-2z"/><path d="m37 31h2v2h-2z"/><path d="m41 31h2v2h-2z"/></g></g></svg>